<svg width="173" height="144" fill="none" xmlns="http://www.w3.org/2000/svg"><path d="M1.403 16V4.8h10.512V16H8.78V6.608l.704.704H3.835l.688-.704V16h-3.12zm18.41.224a6.922 6.922 0 01-2.48-.432 6.062 6.062 0 01-1.984-1.216 5.77 5.77 0 01-1.296-1.856 5.703 5.703 0 01-.464-2.32c0-.843.155-1.616.464-2.32a5.592 5.592 0 011.296-1.84 5.927 5.927 0 011.984-1.232 6.922 6.922 0 012.48-.432c.907 0 1.734.144 2.48.432a5.755 5.755 0 011.968 1.232 5.595 5.595 0 011.296 1.84c.32.704.48 1.477.48 2.32a5.65 5.65 0 01-.48 2.336 5.595 5.595 0 01-1.296 1.84 5.883 5.883 0 01-1.968 1.216c-.746.288-1.573.432-2.48.432zm0-2.624a3.08 3.08 0 001.184-.224 2.71 2.71 0 00.96-.64c.278-.288.491-.63.64-1.024.16-.395.24-.832.24-1.312 0-.49-.08-.928-.24-1.312a2.812 2.812 0 00-.64-1.008 2.613 2.613 0 00-.96-.656 3.08 3.08 0 00-1.184-.224 3.2 3.2 0 00-1.2.224 2.8 2.8 0 00-.96.656c-.266.277-.48.613-.64 1.008a3.605 3.605 0 00-.224 1.312c0 .48.075.917.224 1.312.16.395.374.736.64 1.024.278.277.598.49.96.64.374.15.774.224 1.2.224zm14.99 2.4l-3.152-5.328 2.544-1.504L38.371 16h-3.568zm-7.136 0V4.8h3.152V16h-3.152zm2.24-4.288v-2.56h4.064v2.56h-4.064zm4.592-.976l-2.928-.32 3.44-5.616h3.328l-3.84 5.936zM38.002 16l4.944-11.2h3.12l4.96 11.2H47.73l-3.872-9.648h1.248L41.234 16h-3.232zm2.704-2.176l.816-2.336h5.472l.816 2.336h-7.104zm10.707 1.312l.944-2.224c.48.245.982.432 1.504.56.523.128 1.03.203 1.52.224.491.021.934-.01 1.328-.096.406-.096.726-.24.96-.432a.926.926 0 00.352-.752c0-.341-.144-.587-.432-.736-.277-.16-.645-.24-1.104-.24h-2.864V9.12h2.608c.427 0 .758-.085.992-.256.235-.17.352-.4.352-.688a.79.79 0 00-.304-.656c-.202-.17-.474-.288-.816-.352a4.38 4.38 0 00-1.152-.08 5.522 5.522 0 00-1.328.24 6.755 6.755 0 00-1.328.528l-.928-2.368a8.538 8.538 0 012.384-.768 9.374 9.374 0 012.432-.096c.79.075 1.504.25 2.144.528.64.267 1.147.624 1.52 1.072.384.448.576.976.576 1.584 0 .533-.144 1.008-.432 1.424a2.92 2.92 0 01-1.168.976c-.49.235-1.056.352-1.696.352l.08-.672c.736 0 1.376.128 1.92.384.555.256.982.608 1.28 1.056.31.437.464.944.464 1.52a2.54 2.54 0 01-.432 1.456c-.277.416-.666.768-1.168 1.056a5.929 5.929 0 01-1.728.64c-.64.15-1.328.219-2.064.208-.736 0-1.482-.09-2.24-.272a10.273 10.273 0 01-2.176-.8zM61.814 16l4.944-11.2h3.12l4.96 11.2h-3.296L67.67 6.352h1.248L65.046 16h-3.232zm2.704-2.176l.816-2.336h5.472l.816 2.336h-7.104zM78.04 16V6.608l.704.704H74.6V4.8h9.984v2.512h-4.128l.704-.704V16h-3.12zm8.005 0V4.8h3.12v6.576L93.788 4.8h2.976V16h-3.12V9.44L89.036 16h-2.992zm17.781 0V4.8h9.36v2.448h-6.24v1.808h2.896c1.365 0 2.405.288 3.12.864.725.576 1.088 1.408 1.088 2.496 0 1.12-.405 2-1.216 2.64-.811.63-1.947.944-3.408.944h-5.6zm3.12-2.272h2.272c.523 0 .923-.107 1.2-.32.288-.213.432-.517.432-.912 0-.79-.544-1.184-1.632-1.184h-2.272v2.416zM115.684 16V4.8h3.12V16h-3.12zm5.949.192c-.214 0-.443-.016-.688-.048a7.629 7.629 0 01-.752-.144l.176-2.592c.149.032.293.048.432.048.437 0 .768-.17.992-.512.224-.352.378-.843.464-1.472.096-.63.154-1.365.176-2.208l.16-4.464h9.024V16h-3.12V6.608l.688.704h-4.528l.64-.736-.08 2.56a28.728 28.728 0 01-.224 2.944c-.118.864-.304 1.605-.56 2.224-.256.608-.614 1.077-1.072 1.408-.448.32-1.024.48-1.728.48zm18.092-7.824c1.365 0 2.421.304 3.168.912.757.608 1.136 1.52 1.136 2.736 0 1.312-.422 2.304-1.264 2.976-.843.672-1.995 1.008-3.456 1.008h-5.296V4.8h3.12v3.568h2.592zm-.624 5.36c.533 0 .954-.144 1.264-.432.32-.288.48-.693.48-1.216 0-.533-.16-.907-.48-1.12-.31-.224-.731-.336-1.264-.336h-1.968v3.104h1.968zm13.257-.24l-.688.704V4.8h3.12v9.392l-.72-.704h4.336l-.72.704V4.8h3.12V16h-15.184V4.8h3.12v9.392l-.688-.704h4.304zm13.754-4.352h5.2v2.368h-5.2V9.136zm.224 4.416h5.856V16H163.2V4.8h8.784v2.448h-5.648v6.304zM109 106.805l-17.5 17.5v-96.11h-10v96.11l-17.5-17.5-7 7 29.5 30 29.5-30-7-7z" fill="#F2B800"/></svg>