<svg width="54" height="55" fill="none" xmlns="http://www.w3.org/2000/svg"><path d="M14.143 7.5A7.143 7.143 0 007 14.643v1.428h40v-1.428A7.143 7.143 0 0039.857 7.5H14.143zM47 18.929H7v21.428a7.143 7.143 0 007.143 7.143h25.714A7.143 7.143 0 0047 40.357V18.93zM21.286 27.5a2.857 2.857 0 11-5.714 0 2.857 2.857 0 015.714 0zm-2.857 11.429a2.857 2.857 0 110-5.714 2.857 2.857 0 010 5.714zM29.857 27.5a2.857 2.857 0 11-5.714 0 2.857 2.857 0 015.714 0zM27 38.929a2.857 2.857 0 110-5.714 2.857 2.857 0 010 5.714zM38.429 27.5a2.857 2.857 0 11-5.714 0 2.857 2.857 0 015.714 0z" fill="#F2B800"/></svg>