<svg width="16" height="16" fill="none" xmlns="http://www.w3.org/2000/svg"><path d="M3.467.5A2.679 2.679 0 00.79 3.179v.535h15V3.18A2.678 2.678 0 0013.11.5H3.467zM15.79 4.786h-15v8.035A2.679 2.679 0 003.467 15.5h9.643a2.679 2.679 0 002.679-2.679V4.786zM6.146 8a1.071 1.071 0 11-2.143 0 1.071 1.071 0 012.143 0zm-1.072 4.286a1.072 1.072 0 110-2.143 1.072 1.072 0 010 2.143zM9.36 8a1.071 1.071 0 11-2.143 0A1.071 1.071 0 019.36 8zm-1.071 4.286a1.072 1.072 0 110-2.143 1.072 1.072 0 010 2.143zM12.574 8a1.072 1.072 0 11-2.143 0 1.072 1.072 0 012.143 0z" fill="#F2B800"/></svg>