<svg aria-hidden="true" style="position:absolute;width:0;height:0" xmlns="http://www.w3.org/2000/svg" overflow="hidden"><defs><symbol id="icon-house" viewBox="0 0 35 32"><path d="M34.9 15.97a1.96 1.96 0 01-1.94 1.949h-1.94l.042 9.725c0 .164-.012.328-.03.492v.977a2.425 2.425 0 01-2.424 2.428h-.97c-.067 0-.133 0-.2-.006-.085.006-.17.006-.255.006h-3.425a2.425 2.425 0 01-2.424-2.428v-5.342a1.94 1.94 0 00-1.939-1.943h-3.879a1.94 1.94 0 00-1.94 1.943v5.342a2.425 2.425 0 01-2.424 2.428H7.764c-.091 0-.182-.006-.273-.012-.073.006-.145.012-.218.012h-.97a2.425 2.425 0 01-2.424-2.428v-6.799c0-.055 0-.115.006-.17v-4.225H1.939c-1.091 0-1.94-.85-1.94-1.949 0-.546.182-1.032.606-1.457L16.146.946C16.57.521 17.055.46 17.48.46s.909.121 1.273.425l15.48 13.628c.485.425.727.911.667 1.457z"/></symbol><symbol id="icon-email" viewBox="0 0 38 32"><path d="M34.56.64H3.84C1.728.64.019 2.368.019 4.48L0 27.52a3.851 3.851 0 003.84 3.84h30.72a3.851 3.851 0 003.84-3.84V4.48A3.851 3.851 0 0034.56.64zm0 7.68l-15.36 9.6-15.36-9.6V4.48l15.36 9.6 15.36-9.6v3.84z"/></symbol><symbol id="icon-phone" viewBox="0 0 32 32"><path d="M21.335 22.739l2.756-2.755a2.692 2.692 0 012.879-.59l3.358 1.341a2.68 2.68 0 011.673 2.46v6.151a2.672 2.672 0 01-2.804 2.645C5.664 30.527.916 10.599.018 2.972A2.673 2.673 0 012.688.008H8.63a2.66 2.66 0 012.46 1.673l1.341 3.358a2.648 2.648 0 01-.578 2.878l-2.755 2.755s1.587 10.739 12.24 12.068z"/></symbol><symbol id="icon-facebook" viewBox="0 0 16 32"><path d="M15.577 1.216v4.76h-2.831c-1.034 0-1.731.216-2.091.649s-.541 1.082-.541 1.947v3.407h5.282l-.703 5.337h-4.579V31H4.597V17.316H0v-5.337h4.597v-3.93c0-2.236.625-3.969 1.875-5.201S9.387 1 11.466 1c1.767 0 3.137.072 4.111.216z"/></symbol><symbol id="icon-telegram" viewBox="0 0 37 32"><path d="M34.431.721L1.724 13.333c-2.232.897-2.219 2.142-.41 2.697l8.397 2.619L29.139 6.391c.919-.559 1.758-.258 1.068.354L14.466 20.953l-.579 8.655c.849 0 1.223-.389 1.699-.849l4.079-3.966 8.484 6.267c1.564.861 2.688.419 3.077-1.448l5.569-26.247c.57-2.286-.873-3.321-2.365-2.645z"/></symbol><symbol id="icon-instagram" viewBox="0 0 32 32"><path d="M16 11.2a4.8 4.8 0 100 9.6 4.8 4.8 0 000-9.6zM16 8a8 8 0 110 16 8 8 0 010-16zm10.4-.4a2 2 0 11-4.001-.001A2 2 0 0126.4 7.6zM16 3.2c-3.958 0-4.605.011-6.446.093-1.254.059-2.096.227-2.877.531a4.616 4.616 0 00-1.728 1.125 4.619 4.619 0 00-1.126 1.728c-.304.784-.472 1.624-.53 2.877-.083 1.766-.094 2.384-.094 6.446 0 3.96.011 4.605.093 6.446.059 1.253.227 2.096.53 2.875a4.668 4.668 0 001.123 1.728 4.64 4.64 0 001.728 1.125c.79.306 1.632.475 2.88.533 1.766.083 2.384.093 6.446.093 3.96 0 4.605-.011 6.446-.093 1.251-.059 2.093-.227 2.875-.53a4.649 4.649 0 001.728-1.125 4.595 4.595 0 001.126-1.728c.304-.787.474-1.629.531-2.88.083-1.765.093-2.384.093-6.445 0-3.958-.011-4.605-.093-6.446-.059-1.251-.229-2.096-.531-2.877a4.649 4.649 0 00-1.125-1.728 4.61 4.61 0 00-1.728-1.126c-.784-.304-1.626-.472-2.877-.53-1.765-.083-2.381-.093-6.445-.093zM16 0c4.347 0 4.89.016 6.597.096 1.703.08 2.864.347 3.883.744a7.79 7.79 0 012.835 1.845A7.852 7.852 0 0131.16 5.52c.395 1.019.664 2.181.744 3.885.075 1.706.096 2.248.096 6.595s-.016 4.89-.096 6.595c-.08 1.704-.349 2.864-.744 3.885a7.804 7.804 0 01-1.845 2.835 7.865 7.865 0 01-2.835 1.845c-1.019.395-2.181.664-3.883.744-1.707.075-2.25.096-6.597.096s-4.89-.016-6.597-.096c-1.702-.08-2.862-.349-3.883-.744a7.817 7.817 0 01-2.835-1.845A7.852 7.852 0 01.84 26.48c-.397-1.019-.664-2.181-.744-3.885C.019 20.889 0 20.347 0 16s.016-4.89.096-6.595C.176 7.699.443 6.541.84 5.52a7.796 7.796 0 011.845-2.835A7.83 7.83 0 015.52.84C6.539.443 7.699.176 9.403.096 11.11.021 11.653 0 16 0z"/></symbol><symbol id="icon-calendar" viewBox="0 0 32 32"><path d="M5.714 0A5.714 5.714 0 00-.001 5.715v1.143h32V5.715A5.714 5.714 0 0026.284 0H5.713zM32 9.143H0v17.143a5.714 5.714 0 005.715 5.715h20.571a5.714 5.714 0 005.715-5.715V9.143zM11.429 16a2.287 2.287 0 01-3.901 1.616 2.287 2.287 0 011.616-3.901A2.287 2.287 0 0111.429 16zm-2.286 9.143a2.287 2.287 0 01-1.616-3.901 2.287 2.287 0 013.901 1.616 2.287 2.287 0 01-2.285 2.285zM18.286 16a2.287 2.287 0 01-3.901 1.616 2.287 2.287 0 011.616-3.901A2.287 2.287 0 0118.286 16zM16 25.143a2.287 2.287 0 01-1.616-3.901 2.287 2.287 0 013.901 1.616A2.287 2.287 0 0116 25.143zM25.143 16a2.287 2.287 0 01-3.901 1.616 2.287 2.287 0 011.616-3.901A2.287 2.287 0 0125.143 16z"/></symbol><symbol id="icon-nav-dots" viewBox="0 0 25 32"><path d="M3.115 17.733a1.734 1.734 0 110-3.468 1.734 1.734 0 010 3.468zm0 1.067a2.797 2.797 0 002.8-2.8 2.797 2.797 0 00-2.8-2.8 2.8 2.8 0 100 5.6zm9.6.8a3.6 3.6 0 100-7.2 3.6 3.6 0 000 7.2zm9.6-1.867a1.734 1.734 0 110-3.468 1.734 1.734 0 010 3.468zm0 1.067a2.797 2.797 0 002.8-2.8 2.797 2.797 0 00-2.8-2.8 2.8 2.8 0 100 5.6z"/></symbol><symbol id="icon-btn-open-more" viewBox="0 0 38 32"><path d="M.312 3.556V1.067h2.336v2.489h-.697V1.469l.156.156H.852l.153-.156v2.087H.312zm4.091.049c-.199 0-.383-.032-.551-.096s-.315-.154-.441-.27a1.261 1.261 0 01-.391-.928 1.244 1.244 0 01.391-.925c.126-.119.273-.21.441-.274s.352-.096.551-.096c.201 0 .385.032.551.096.168.064.314.155.437.274.123.116.219.252.288.409.071.156.107.328.107.516a1.255 1.255 0 01-.395.928 1.308 1.308 0 01-.437.27c-.166.064-.35.096-.551.096zm0-.583a.685.685 0 00.263-.05.603.603 0 00.213-.142.763.763 0 00.195-.52.768.768 0 00-.053-.292.63.63 0 00-.142-.224.575.575 0 00-.213-.146.716.716 0 00-.53 0 .61.61 0 00-.213.146.692.692 0 00-.142.224.805.805 0 00-.05.292c0 .107.017.204.05.292a.752.752 0 00.142.228.647.647 0 00.48.192zm3.331.534l-.7-1.184.565-.334.928 1.518h-.793zm-1.586 0V1.067h.7v2.489h-.7zm.498-.953v-.569h.903v.569h-.903zm1.021-.217l-.651-.071.764-1.248h.74l-.853 1.319zm.778 1.17l1.099-2.489h.693l1.102 2.489h-.732l-.86-2.144h.277l-.86 2.144h-.718zm.601-.484l.181-.519h1.216l.181.519H9.045zm2.379.292l.21-.494c.107.054.218.096.334.124s.229.045.338.05c.109.005.207-.002.295-.021.09-.021.161-.053.213-.096s.078-.098.078-.167a.172.172 0 00-.096-.164.484.484 0 00-.245-.053h-.636v-.516h.58c.095 0 .168-.019.22-.057s.078-.089.078-.153a.177.177 0 00-.068-.146.382.382 0 00-.181-.078c-.076-.017-.161-.023-.256-.018s-.193.023-.295.053c-.102.028-.2.068-.295.117l-.206-.526c.168-.083.345-.14.53-.171s.365-.038.54-.021c.175.017.334.056.476.117a.865.865 0 01.338.238c.085.1.128.217.128.352 0 .119-.032.224-.096.316s-.151.165-.26.217a.867.867 0 01-.377.078l.018-.149c.164 0 .306.028.427.085a.664.664 0 01.284.235c.069.097.103.21.103.338a.566.566 0 01-.096.324c-.062.092-.148.171-.26.235s-.239.111-.384.142a1.871 1.871 0 01-.459.046 2.151 2.151 0 01-.982-.238zm2.312.192l1.099-2.489h.693l1.102 2.489h-.732l-.86-2.144h.277l-.86 2.144h-.718zm.6-.484l.181-.519h1.216l.181.519h-1.579zm3.005.484V1.469l.156.156h-.921v-.558h2.219v.558h-.917l.156-.156v2.087h-.693zm1.779 0V1.067h.693v1.461l1.028-1.461h.661v2.489h-.693V2.098l-1.024 1.458h-.665zm3.951 0V1.067h2.08v.544h-1.387v.402h.644c.303 0 .534.064.693.192.161.128.242.313.242.555 0 .249-.09.444-.27.587-.18.14-.433.21-.757.21h-1.244zm.694-.505h.505a.435.435 0 00.267-.071.237.237 0 00.096-.203c0-.175-.121-.263-.363-.263h-.505v.537zm1.942.505V1.067h.693v2.489h-.693zm1.322.042a1.21 1.21 0 01-.153-.011 1.733 1.733 0 01-.167-.032l.039-.576a.464.464 0 00.096.011.245.245 0 00.22-.114.813.813 0 00.103-.327c.021-.14.034-.303.039-.491l.036-.992h2.005v2.489h-.693V1.468l.153.156h-1.006l.142-.164-.018.569a6.33 6.33 0 01-.05.654 2.034 2.034 0 01-.124.494.721.721 0 01-.238.313.648.648 0 01-.384.107zm4.02-1.738c.303 0 .538.068.704.203.168.135.252.338.252.608 0 .292-.094.512-.281.661s-.443.224-.768.224H29.78V1.067h.693v.793h.576zm-.139 1.191a.398.398 0 00.281-.096.345.345 0 00.107-.27c0-.119-.036-.202-.107-.249a.469.469 0 00-.281-.075h-.437v.69h.437zm2.946-.054l-.153.156V1.066h.693v2.087l-.16-.156h.964l-.16.156V1.066h.693v2.489H32.36V1.066h.693v2.087l-.153-.156h.956zm3.057-.967h1.156v.526h-1.156V2.03zm.05.982h1.301v.544h-1.998V1.067h1.952v.544h-1.255v1.401zM24.222 23.734l-3.889 3.889V6.265h-2.222v21.358l-3.889-3.889-1.556 1.556 6.556 6.667 6.556-6.667-1.556-1.556z"/></symbol><symbol id="icon-next-btn" viewBox="0 0 98 32"><path d="M77.559 3.797l9.492 9.492H0v5.424h87.051l-9.492 9.492 3.797 3.797 16.271-16-16.271-16-3.797 3.797z"/></symbol><symbol id="icon-previous-btn" viewBox="0 0 98 32"><path d="M20.068 3.797l-9.492 9.492h87.051v5.424H10.576l9.492 9.492-3.797 3.797L0 16.002l16.271-16 3.797 3.797z"/></symbol><symbol id="icon-sort-btn" viewBox="0 0 32 32"><path d="M16.703 7.797l-1.406 1.406-5.281-5.266L10 32H8l.016-28.109-5.313 5.313-1.406-1.406L9 .095l7.703 7.703zm12.61 15l1.422 1.406-7.703 7.703-7.719-7.703 1.422-1.406 5.281 5.281L22 0h2l.016 28.094 5.297-5.297z"/></symbol><symbol id="icon-next-menu" viewBox="0 0 32 32"><path d="M7.486 27.341L18.827 16 7.486 4.634l3.491-3.491L25.834 16 10.977 30.857l-3.491-3.516z"/></symbol><symbol id="icon-button-open-more" viewBox="0 0 34 32"><path stroke-linejoin="round" stroke-linecap="round" stroke-width="3.2" d="M26.862 18.489l-9.6 8.711m0 0l-9.6-8.711m9.6 8.711V4.8"/></symbol><symbol id="icon-button-next" viewBox="0 0 34 32"><path stroke-linejoin="round" stroke-linecap="round" stroke-width="3.2" d="M19.751 6.4l8.711 9.6m0 0l-8.711 9.6m8.711-9.6h-22.4"/></symbol><symbol id="icon-menu-burger" viewBox="0 0 32 32"><path stroke-linejoin="round" stroke-linecap="round" stroke-width="1.454" d="M4 8h24M4 16h24M4 24h24"/></symbol><symbol id="icon-close" viewBox="0 0 32 32"><path stroke-linejoin="round" stroke-linecap="round" stroke-width="1.454" d="M23 23L9 9m14 0L9 23"/></symbol></defs></svg>