<svg width="173" height="144" viewBox="0 0 173 144" fill="none" xmlns="http://www.w3.org/2000/svg">
<path d="M1.40313 16V4.8H11.9151V16H8.77913V6.608L9.48313 7.312H3.83513L4.52313 6.608V16H1.40313ZM19.8134 16.224C18.9174 16.224 18.0907 16.08 17.3334 15.792C16.576 15.504 15.9147 15.0987 15.3494 14.576C14.7947 14.0427 14.3627 13.424 14.0534 12.72C13.744 12.016 13.5894 11.2427 13.5894 10.4C13.5894 9.55733 13.744 8.784 14.0534 8.08C14.3627 7.376 14.7947 6.76267 15.3494 6.24C15.9147 5.70667 16.576 5.296 17.3334 5.008C18.0907 4.72 18.9174 4.576 19.8134 4.576C20.72 4.576 21.5467 4.72 22.2934 5.008C23.0507 5.296 23.7067 5.70667 24.2614 6.24C24.816 6.76267 25.248 7.376 25.5574 8.08C25.8774 8.784 26.0374 9.55733 26.0374 10.4C26.0374 11.2427 25.8774 12.0213 25.5574 12.736C25.248 13.44 24.816 14.0533 24.2614 14.576C23.7067 15.0987 23.0507 15.504 22.2934 15.792C21.5467 16.08 20.72 16.224 19.8134 16.224ZM19.8134 13.6C20.24 13.6 20.6347 13.5253 20.9974 13.376C21.3707 13.2267 21.6907 13.0133 21.9574 12.736C22.2347 12.448 22.448 12.1067 22.5974 11.712C22.7574 11.3173 22.8374 10.88 22.8374 10.4C22.8374 9.90933 22.7574 9.472 22.5974 9.088C22.448 8.69333 22.2347 8.35733 21.9574 8.08C21.6907 7.792 21.3707 7.57333 20.9974 7.424C20.6347 7.27467 20.24 7.2 19.8134 7.2C19.3867 7.2 18.9867 7.27467 18.6134 7.424C18.2507 7.57333 17.9307 7.792 17.6534 8.08C17.3867 8.35733 17.1734 8.69333 17.0134 9.088C16.864 9.472 16.7894 9.90933 16.7894 10.4C16.7894 10.88 16.864 11.3173 17.0134 11.712C17.1734 12.1067 17.3867 12.448 17.6534 12.736C17.9307 13.0133 18.2507 13.2267 18.6134 13.376C18.9867 13.5253 19.3867 13.6 19.8134 13.6ZM34.8033 16L31.6513 10.672L34.1953 9.168L38.3713 16H34.8033ZM27.6673 16V4.8H30.8193V16H27.6673ZM29.9073 11.712V9.152H33.9713V11.712H29.9073ZM34.4993 10.736L31.5713 10.416L35.0113 4.8H38.3393L34.4993 10.736ZM38.0019 16L42.9459 4.8H46.0659L51.0259 16H47.7299L43.8579 6.352H45.1059L41.2339 16H38.0019ZM40.7059 13.824L41.5219 11.488H46.9939L47.8099 13.824H40.7059ZM51.4134 15.136L52.3574 12.912C52.8374 13.1573 53.3387 13.344 53.8614 13.472C54.384 13.6 54.8907 13.6747 55.3814 13.696C55.872 13.7173 56.3147 13.6853 56.7094 13.6C57.1147 13.504 57.4347 13.36 57.6694 13.168C57.904 12.976 58.0214 12.7253 58.0214 12.416C58.0214 12.0747 57.8774 11.8293 57.5894 11.68C57.312 11.52 56.944 11.44 56.4854 11.44H53.6214V9.12H56.2294C56.656 9.12 56.9867 9.03467 57.2214 8.864C57.456 8.69333 57.5734 8.464 57.5734 8.176C57.5734 7.89867 57.472 7.68 57.2694 7.52C57.0667 7.34933 56.7947 7.232 56.4534 7.168C56.112 7.09333 55.728 7.06667 55.3014 7.088C54.8747 7.10933 54.432 7.18933 53.9734 7.328C53.5147 7.456 53.072 7.632 52.6454 7.856L51.7174 5.488C52.4747 5.11467 53.2694 4.85867 54.1014 4.72C54.9334 4.58133 55.744 4.54933 56.5334 4.624C57.3227 4.69867 58.0374 4.87467 58.6774 5.152C59.3174 5.41867 59.824 5.776 60.1974 6.224C60.5814 6.672 60.7734 7.2 60.7734 7.808C60.7734 8.34133 60.6294 8.816 60.3414 9.232C60.0534 9.648 59.664 9.97333 59.1734 10.208C58.6827 10.4427 58.1174 10.56 57.4774 10.56L57.5574 9.888C58.2934 9.888 58.9334 10.016 59.4774 10.272C60.032 10.528 60.4587 10.88 60.7574 11.328C61.0667 11.7653 61.2214 12.272 61.2214 12.848C61.2214 13.392 61.0774 13.8773 60.7894 14.304C60.512 14.72 60.1227 15.072 59.6214 15.36C59.12 15.648 58.544 15.8613 57.8934 16C57.2534 16.1493 56.5654 16.2187 55.8294 16.208C55.0934 16.208 54.3467 16.1173 53.5894 15.936C52.8427 15.7547 52.1174 15.488 51.4134 15.136ZM61.8144 16L66.7584 4.8H69.8784L74.8384 16H71.5424L67.6704 6.352H68.9184L65.0464 16H61.8144ZM64.5184 13.824L65.3344 11.488H70.8064L71.6224 13.824H64.5184ZM78.0394 16V6.608L78.7434 7.312H74.5994V4.8H84.5834V7.312H80.4554L81.1594 6.608V16H78.0394ZM86.0438 16V4.8H89.1638V11.376L93.7878 4.8H96.7638V16H93.6438V9.44L89.0358 16H86.0438ZM103.825 16V4.8H113.185V7.248H106.945V9.056H109.841C111.206 9.056 112.246 9.344 112.961 9.92C113.686 10.496 114.049 11.328 114.049 12.416C114.049 13.536 113.644 14.416 112.833 15.056C112.022 15.6853 110.886 16 109.425 16H103.825ZM106.945 13.728H109.217C109.74 13.728 110.14 13.6213 110.417 13.408C110.705 13.1947 110.849 12.8907 110.849 12.496C110.849 11.7067 110.305 11.312 109.217 11.312H106.945V13.728ZM115.684 16V4.8H118.804V16H115.684ZM121.633 16.192C121.419 16.192 121.19 16.176 120.945 16.144C120.71 16.112 120.459 16.064 120.193 16L120.369 13.408C120.518 13.44 120.662 13.456 120.801 13.456C121.238 13.456 121.569 13.2853 121.793 12.944C122.017 12.592 122.171 12.1013 122.257 11.472C122.353 10.8427 122.411 10.1067 122.433 9.264L122.593 4.8H131.617V16H128.497V6.608L129.185 7.312H124.657L125.297 6.576L125.217 9.136C125.185 10.224 125.11 11.2053 124.993 12.08C124.875 12.944 124.689 13.6853 124.433 14.304C124.177 14.912 123.819 15.3813 123.361 15.712C122.913 16.032 122.337 16.192 121.633 16.192ZM139.725 8.368C141.09 8.368 142.146 8.672 142.893 9.28C143.65 9.888 144.029 10.8 144.029 12.016C144.029 13.328 143.607 14.32 142.765 14.992C141.922 15.664 140.77 16 139.309 16H134.013V4.8H137.133V8.368H139.725ZM139.101 13.728C139.634 13.728 140.055 13.584 140.365 13.296C140.685 13.008 140.845 12.6027 140.845 12.08C140.845 11.5467 140.685 11.1733 140.365 10.96C140.055 10.736 139.634 10.624 139.101 10.624H137.133V13.728H139.101ZM152.358 13.488L151.67 14.192V4.8H154.79V14.192L154.07 13.488H158.406L157.686 14.192V4.8H160.806V16H145.622V4.8H148.742V14.192L148.054 13.488H152.358ZM166.112 9.136H171.312V11.504H166.112V9.136ZM166.336 13.552H172.192V16H163.2V4.8H171.984V7.248H166.336V13.552Z" fill="#F2B800"/>
<path d="M109 106.805L91.5 124.305L91.5 28.1945H81.5L81.5 124.305L64 106.805L57 113.805L86.5 143.805L116 113.805L109 106.805Z" fill="#F2B800"/>
</svg>
