<svg width="54" height="55" viewBox="0 0 54 55" fill="none" xmlns="http://www.w3.org/2000/svg">
<path d="M14.1429 7.5C12.2485 7.5 10.4316 8.25255 9.09209 9.59209C7.75255 10.9316 7 12.7485 7 14.6429V16.0714H47V14.6429C47 12.7485 46.2475 10.9316 44.9079 9.59209C43.5684 8.25255 41.7515 7.5 39.8571 7.5H14.1429ZM47 18.9286H7V40.3571C7 42.2515 7.75255 44.0684 9.09209 45.4079C10.4316 46.7475 12.2485 47.5 14.1429 47.5H39.8571C41.7515 47.5 43.5684 46.7475 44.9079 45.4079C46.2475 44.0684 47 42.2515 47 40.3571V18.9286ZM21.2857 27.5C21.2857 28.2578 20.9847 28.9845 20.4489 29.5203C19.9131 30.0561 19.1863 30.3571 18.4286 30.3571C17.6708 30.3571 16.9441 30.0561 16.4083 29.5203C15.8724 28.9845 15.5714 28.2578 15.5714 27.5C15.5714 26.7422 15.8724 26.0155 16.4083 25.4797C16.9441 24.9439 17.6708 24.6429 18.4286 24.6429C19.1863 24.6429 19.9131 24.9439 20.4489 25.4797C20.9847 26.0155 21.2857 26.7422 21.2857 27.5ZM18.4286 38.9286C17.6708 38.9286 16.9441 38.6276 16.4083 38.0917C15.8724 37.5559 15.5714 36.8292 15.5714 36.0714C15.5714 35.3137 15.8724 34.5869 16.4083 34.0511C16.9441 33.5153 17.6708 33.2143 18.4286 33.2143C19.1863 33.2143 19.9131 33.5153 20.4489 34.0511C20.9847 34.5869 21.2857 35.3137 21.2857 36.0714C21.2857 36.8292 20.9847 37.5559 20.4489 38.0917C19.9131 38.6276 19.1863 38.9286 18.4286 38.9286ZM29.8571 27.5C29.8571 28.2578 29.5561 28.9845 29.0203 29.5203C28.4845 30.0561 27.7578 30.3571 27 30.3571C26.2422 30.3571 25.5155 30.0561 24.9797 29.5203C24.4439 28.9845 24.1429 28.2578 24.1429 27.5C24.1429 26.7422 24.4439 26.0155 24.9797 25.4797C25.5155 24.9439 26.2422 24.6429 27 24.6429C27.7578 24.6429 28.4845 24.9439 29.0203 25.4797C29.5561 26.0155 29.8571 26.7422 29.8571 27.5ZM27 38.9286C26.2422 38.9286 25.5155 38.6276 24.9797 38.0917C24.4439 37.5559 24.1429 36.8292 24.1429 36.0714C24.1429 35.3137 24.4439 34.5869 24.9797 34.0511C25.5155 33.5153 26.2422 33.2143 27 33.2143C27.7578 33.2143 28.4845 33.5153 29.0203 34.0511C29.5561 34.5869 29.8571 35.3137 29.8571 36.0714C29.8571 36.8292 29.5561 37.5559 29.0203 38.0917C28.4845 38.6276 27.7578 38.9286 27 38.9286ZM38.4286 27.5C38.4286 28.2578 38.1276 28.9845 37.5917 29.5203C37.0559 30.0561 36.3292 30.3571 35.5714 30.3571C34.8137 30.3571 34.0869 30.0561 33.5511 29.5203C33.0153 28.9845 32.7143 28.2578 32.7143 27.5C32.7143 26.7422 33.0153 26.0155 33.5511 25.4797C34.0869 24.9439 34.8137 24.6429 35.5714 24.6429C36.3292 24.6429 37.0559 24.9439 37.5917 25.4797C38.1276 26.0155 38.4286 26.7422 38.4286 27.5Z" fill="#F2B800"/>
</svg>
