<svg width="16" height="16" viewBox="0 0 16 16" fill="none" xmlns="http://www.w3.org/2000/svg">
<path d="M3.46715 0.5C2.75674 0.5 2.07544 0.782206 1.57311 1.28454C1.07078 1.78686 0.788574 2.46817 0.788574 3.17857V3.71429H15.7886V3.17857C15.7886 2.46817 15.5064 1.78686 15.004 1.28454C14.5017 0.782206 13.8204 0.5 13.11 0.5H3.46715ZM15.7886 4.78571H0.788574V12.8214C0.788574 13.5318 1.07078 14.2131 1.57311 14.7155C2.07544 15.2178 2.75674 15.5 3.46715 15.5H13.11C13.8204 15.5 14.5017 15.2178 15.004 14.7155C15.5064 14.2131 15.7886 13.5318 15.7886 12.8214V4.78571ZM6.14572 8C6.14572 8.28416 6.03283 8.55668 5.8319 8.75761C5.63097 8.95855 5.35845 9.07143 5.07429 9.07143C4.79013 9.07143 4.51761 8.95855 4.31667 8.75761C4.11574 8.55668 4.00286 8.28416 4.00286 8C4.00286 7.71584 4.11574 7.44332 4.31667 7.24239C4.51761 7.04145 4.79013 6.92857 5.07429 6.92857C5.35845 6.92857 5.63097 7.04145 5.8319 7.24239C6.03283 7.44332 6.14572 7.71584 6.14572 8ZM5.07429 12.2857C4.79013 12.2857 4.51761 12.1728 4.31667 11.9719C4.11574 11.771 4.00286 11.4984 4.00286 11.2143C4.00286 10.9301 4.11574 10.6576 4.31667 10.4567C4.51761 10.2557 4.79013 10.1429 5.07429 10.1429C5.35845 10.1429 5.63097 10.2557 5.8319 10.4567C6.03283 10.6576 6.14572 10.9301 6.14572 11.2143C6.14572 11.4984 6.03283 11.771 5.8319 11.9719C5.63097 12.1728 5.35845 12.2857 5.07429 12.2857ZM9.36 8C9.36 8.28416 9.24712 8.55668 9.04619 8.75761C8.84526 8.95855 8.57273 9.07143 8.28857 9.07143C8.00441 9.07143 7.73189 8.95855 7.53096 8.75761C7.33003 8.55668 7.21715 8.28416 7.21715 8C7.21715 7.71584 7.33003 7.44332 7.53096 7.24239C7.73189 7.04145 8.00441 6.92857 8.28857 6.92857C8.57273 6.92857 8.84526 7.04145 9.04619 7.24239C9.24712 7.44332 9.36 7.71584 9.36 8ZM8.28857 12.2857C8.00441 12.2857 7.73189 12.1728 7.53096 11.9719C7.33003 11.771 7.21715 11.4984 7.21715 11.2143C7.21715 10.9301 7.33003 10.6576 7.53096 10.4567C7.73189 10.2557 8.00441 10.1429 8.28857 10.1429C8.57273 10.1429 8.84526 10.2557 9.04619 10.4567C9.24712 10.6576 9.36 10.9301 9.36 11.2143C9.36 11.4984 9.24712 11.771 9.04619 11.9719C8.84526 12.1728 8.57273 12.2857 8.28857 12.2857ZM12.5743 8C12.5743 8.28416 12.4614 8.55668 12.2605 8.75761C12.0595 8.95855 11.787 9.07143 11.5029 9.07143C11.2187 9.07143 10.9462 8.95855 10.7452 8.75761C10.5443 8.55668 10.4314 8.28416 10.4314 8C10.4314 7.71584 10.5443 7.44332 10.7452 7.24239C10.9462 7.04145 11.2187 6.92857 11.5029 6.92857C11.787 6.92857 12.0595 7.04145 12.2605 7.24239C12.4614 7.44332 12.5743 7.71584 12.5743 8Z" fill="#F2B800"/>
</svg>
