<svg width="21" height="20" viewBox="0 0 21 20" fill="none" xmlns="http://www.w3.org/2000/svg">
<path d="M16.5 12H11.5V17C11.5 17.2652 11.3946 17.5196 11.2071 17.7071C11.0196 17.8946 10.7652 18 10.5 18C10.2348 18 9.98043 17.8946 9.79289 17.7071C9.60536 17.5196 9.5 17.2652 9.5 17V12H4.5C4.23478 12 3.98043 11.8946 3.79289 11.7071C3.60536 11.5196 3.5 11.2652 3.5 11C3.5 10.7348 3.60536 10.4804 3.79289 10.2929C3.98043 10.1054 4.23478 10 4.5 10H9.5V5C9.5 4.73478 9.60536 4.48043 9.79289 4.29289C9.98043 4.10536 10.2348 4 10.5 4C10.7652 4 11.0196 4.10536 11.2071 4.29289C11.3946 4.48043 11.5 4.73478 11.5 5V10H16.5C16.7652 10 17.0196 10.1054 17.2071 10.2929C17.3946 10.4804 17.5 10.7348 17.5 11C17.5 11.2652 17.3946 11.5196 17.2071 11.7071C17.0196 11.8946 16.7652 12 16.5 12Z" fill="white"/>
</svg>
