<svg aria-hidden="true" style="position: absolute; width: 0; height: 0; overflow: hidden;" version="1.1" xmlns="http://www.w3.org/2000/svg" xmlns:xlink="http://www.w3.org/1999/xlink">
<defs>
<symbol id="icon-house" viewBox="0 0 35 32">
<path d="M34.9 15.97c0 1.093-0.909 1.949-1.94 1.949h-1.94l0.042 9.725c0 0.164-0.012 0.328-0.030 0.492v0.977c0 1.342-1.085 2.428-2.424 2.428h-0.97c-0.067 0-0.133 0-0.2-0.006-0.085 0.006-0.17 0.006-0.255 0.006h-3.425c-1.34 0-2.424-1.087-2.424-2.428v-5.342c0-1.074-0.867-1.943-1.939-1.943h-3.879c-1.073 0-1.94 0.868-1.94 1.943v5.342c0 1.342-1.085 2.428-2.424 2.428h-3.388c-0.091 0-0.182-0.006-0.273-0.012-0.073 0.006-0.145 0.012-0.218 0.012h-0.97c-1.34 0-2.424-1.087-2.424-2.428v-6.799c0-0.055 0-0.115 0.006-0.17v-4.225h-1.946c-1.091 0-1.94-0.85-1.94-1.949 0-0.546 0.182-1.032 0.606-1.457l15.541-13.567c0.424-0.425 0.909-0.486 1.334-0.486s0.909 0.121 1.273 0.425l15.48 13.628c0.485 0.425 0.727 0.911 0.667 1.457z"></path>
</symbol>
<symbol id="icon-email" viewBox="0 0 38 32">
<path d="M34.56 0.64h-30.72c-2.112 0-3.821 1.728-3.821 3.84l-0.019 23.040c0 2.112 1.728 3.84 3.84 3.84h30.72c2.112 0 3.84-1.728 3.84-3.84v-23.040c0-2.112-1.728-3.84-3.84-3.84zM34.56 8.32l-15.36 9.6-15.36-9.6v-3.84l15.36 9.6 15.36-9.6v3.84z"></path>
</symbol>
<symbol id="icon-phone" viewBox="0 0 32 32">
<path d="M21.335 22.739l2.756-2.755c0.371-0.367 0.841-0.617 1.352-0.722s1.041-0.059 1.527 0.132l3.358 1.341c0.491 0.199 0.911 0.539 1.209 0.977s0.459 0.954 0.464 1.483v6.151c-0.003 0.36-0.079 0.716-0.223 1.046s-0.353 0.628-0.615 0.875c-0.262 0.247-0.571 0.439-0.909 0.563s-0.698 0.179-1.057 0.161c-23.533-1.464-28.281-21.392-29.179-29.019-0.042-0.375-0.004-0.754 0.112-1.112s0.305-0.689 0.558-0.969c0.252-0.28 0.561-0.504 0.905-0.656s0.718-0.23 1.095-0.227h5.942c0.53 0.002 1.048 0.162 1.486 0.46s0.778 0.721 0.974 1.213l1.341 3.358c0.197 0.484 0.247 1.014 0.145 1.526s-0.354 0.982-0.723 1.352l-2.755 2.755c0 0 1.587 10.739 12.24 12.068z"></path>
</symbol>
<symbol id="icon-facebook" viewBox="0 0 16 32">
<path d="M15.577 1.216v4.76h-2.831c-1.034 0-1.731 0.216-2.091 0.649s-0.541 1.082-0.541 1.947v3.407h5.282l-0.703 5.337h-4.579v13.684h-5.517v-13.684h-4.597v-5.337h4.597v-3.93c0-2.236 0.625-3.969 1.875-5.201s2.915-1.848 4.994-1.848c1.767 0 3.137 0.072 4.111 0.216z"></path>
</symbol>
<symbol id="icon-telegram" viewBox="0 0 37 32">
<path d="M34.431 0.721l-32.707 12.612c-2.232 0.897-2.219 2.142-0.41 2.697l8.397 2.619 19.428-12.258c0.919-0.559 1.758-0.258 1.068 0.354l-15.741 14.208-0.579 8.655c0.849 0 1.223-0.389 1.699-0.849l4.079-3.966 8.484 6.267c1.564 0.861 2.688 0.419 3.077-1.448l5.569-26.247c0.57-2.286-0.873-3.321-2.365-2.645z"></path>
</symbol>
<symbol id="icon-instagram" viewBox="0 0 32 32">
<path d="M16 11.2c-1.273 0-2.494 0.506-3.394 1.406s-1.406 2.121-1.406 3.394c0 1.273 0.506 2.494 1.406 3.394s2.121 1.406 3.394 1.406c1.273 0 2.494-0.506 3.394-1.406s1.406-2.121 1.406-3.394c0-1.273-0.506-2.494-1.406-3.394s-2.121-1.406-3.394-1.406zM16 8c2.122 0 4.157 0.843 5.657 2.343s2.343 3.535 2.343 5.657-0.843 4.157-2.343 5.657c-1.5 1.5-3.535 2.343-5.657 2.343s-4.157-0.843-5.657-2.343c-1.5-1.5-2.343-3.535-2.343-5.657s0.843-4.157 2.343-5.657c1.5-1.5 3.535-2.343 5.657-2.343zM26.4 7.6c0 0.53-0.211 1.039-0.586 1.414s-0.884 0.586-1.414 0.586c-0.53 0-1.039-0.211-1.414-0.586s-0.586-0.884-0.586-1.414c0-0.53 0.211-1.039 0.586-1.414s0.884-0.586 1.414-0.586c0.53 0 1.039 0.211 1.414 0.586s0.586 0.884 0.586 1.414zM16 3.2c-3.958 0-4.605 0.011-6.446 0.093-1.254 0.059-2.096 0.227-2.877 0.531-0.653 0.24-1.244 0.624-1.728 1.125-0.501 0.484-0.886 1.075-1.126 1.728-0.304 0.784-0.472 1.624-0.53 2.877-0.083 1.766-0.094 2.384-0.094 6.446 0 3.96 0.011 4.605 0.093 6.446 0.059 1.253 0.227 2.096 0.53 2.875 0.272 0.696 0.592 1.197 1.123 1.728 0.539 0.538 1.040 0.859 1.728 1.125 0.79 0.306 1.632 0.475 2.88 0.533 1.766 0.083 2.384 0.093 6.446 0.093 3.96 0 4.605-0.011 6.446-0.093 1.251-0.059 2.093-0.227 2.875-0.53 0.653-0.241 1.243-0.625 1.728-1.125 0.539-0.538 0.861-1.038 1.126-1.728 0.304-0.787 0.474-1.629 0.531-2.88 0.083-1.765 0.093-2.384 0.093-6.445 0-3.958-0.011-4.605-0.093-6.446-0.059-1.251-0.229-2.096-0.531-2.877-0.241-0.653-0.625-1.243-1.125-1.728-0.484-0.501-1.074-0.886-1.728-1.126-0.784-0.304-1.626-0.472-2.877-0.53-1.765-0.083-2.381-0.093-6.445-0.093zM16 0c4.347 0 4.89 0.016 6.597 0.096 1.703 0.080 2.864 0.347 3.883 0.744 1.056 0.406 1.946 0.957 2.835 1.845 0.814 0.8 1.443 1.767 1.845 2.835 0.395 1.019 0.664 2.181 0.744 3.885 0.075 1.706 0.096 2.248 0.096 6.595s-0.016 4.89-0.096 6.595c-0.080 1.704-0.349 2.864-0.744 3.885-0.4 1.068-1.030 2.036-1.845 2.835-0.8 0.813-1.767 1.443-2.835 1.845-1.019 0.395-2.181 0.664-3.883 0.744-1.707 0.075-2.25 0.096-6.597 0.096s-4.89-0.016-6.597-0.096c-1.702-0.080-2.862-0.349-3.883-0.744-1.068-0.401-2.036-1.030-2.835-1.845-0.814-0.8-1.443-1.767-1.845-2.835-0.397-1.019-0.664-2.181-0.744-3.885-0.077-1.706-0.096-2.248-0.096-6.595s0.016-4.89 0.096-6.595c0.080-1.706 0.347-2.864 0.744-3.885 0.4-1.069 1.030-2.036 1.845-2.835 0.799-0.814 1.767-1.444 2.835-1.845 1.019-0.397 2.179-0.664 3.883-0.744 1.707-0.075 2.25-0.096 6.597-0.096z"></path>
</symbol>
<symbol id="icon-calendar" viewBox="0 0 32 32">
<path d="M5.714 0c-1.516 0-2.969 0.602-4.041 1.674s-1.674 2.525-1.674 4.041v1.143h32v-1.143c0-1.516-0.602-2.969-1.674-4.041s-2.525-1.674-4.041-1.674h-20.571zM32 9.143h-32v17.143c0 1.516 0.602 2.969 1.674 4.041s2.525 1.674 4.041 1.674h20.571c1.516 0 2.969-0.602 4.041-1.674s1.674-2.525 1.674-4.041v-17.143zM11.429 16c0 0.606-0.241 1.188-0.669 1.616s-1.010 0.669-1.616 0.669c-0.606 0-1.188-0.241-1.616-0.669s-0.669-1.010-0.669-1.616c0-0.606 0.241-1.188 0.669-1.616s1.010-0.669 1.616-0.669c0.606 0 1.188 0.241 1.616 0.669s0.669 1.010 0.669 1.616zM9.143 25.143c-0.606 0-1.188-0.241-1.616-0.669s-0.669-1.010-0.669-1.616c0-0.606 0.241-1.188 0.669-1.616s1.010-0.669 1.616-0.669c0.606 0 1.188 0.241 1.616 0.669s0.669 1.010 0.669 1.616c0 0.606-0.241 1.188-0.669 1.616s-1.010 0.669-1.616 0.669zM18.286 16c0 0.606-0.241 1.188-0.669 1.616s-1.010 0.669-1.616 0.669c-0.606 0-1.188-0.241-1.616-0.669s-0.669-1.010-0.669-1.616c0-0.606 0.241-1.188 0.669-1.616s1.010-0.669 1.616-0.669c0.606 0 1.188 0.241 1.616 0.669s0.669 1.010 0.669 1.616zM16 25.143c-0.606 0-1.188-0.241-1.616-0.669s-0.669-1.010-0.669-1.616c0-0.606 0.241-1.188 0.669-1.616s1.010-0.669 1.616-0.669c0.606 0 1.188 0.241 1.616 0.669s0.669 1.010 0.669 1.616c0 0.606-0.241 1.188-0.669 1.616s-1.010 0.669-1.616 0.669zM25.143 16c0 0.606-0.241 1.188-0.669 1.616s-1.010 0.669-1.616 0.669c-0.606 0-1.188-0.241-1.616-0.669s-0.669-1.010-0.669-1.616c0-0.606 0.241-1.188 0.669-1.616s1.010-0.669 1.616-0.669c0.606 0 1.188 0.241 1.616 0.669s0.669 1.010 0.669 1.616z"></path>
</symbol>
<symbol id="icon-nav-dots" viewBox="0 0 25 32">
<path d="M3.115 17.733c-0.46 0-0.901-0.183-1.226-0.508s-0.508-0.766-0.508-1.226 0.183-0.901 0.508-1.226c0.325-0.325 0.766-0.508 1.226-0.508s0.901 0.183 1.226 0.508c0.325 0.325 0.508 0.766 0.508 1.226s-0.183 0.901-0.508 1.226c-0.325 0.325-0.766 0.508-1.226 0.508zM3.115 18.8c0.368 0 0.732-0.072 1.072-0.213s0.648-0.347 0.908-0.607c0.26-0.26 0.466-0.569 0.607-0.908s0.213-0.704 0.213-1.072c0-0.368-0.072-0.732-0.213-1.072s-0.347-0.648-0.607-0.908c-0.26-0.26-0.569-0.466-0.908-0.607s-0.704-0.213-1.072-0.213c-0.743 0-1.455 0.295-1.98 0.82s-0.82 1.237-0.82 1.98 0.295 1.455 0.82 1.98c0.525 0.525 1.237 0.82 1.98 0.82z"></path>
<path d="M12.715 19.6c0.473 0 0.941-0.093 1.378-0.274s0.834-0.446 1.168-0.78c0.334-0.334 0.599-0.731 0.78-1.168s0.274-0.905 0.274-1.378-0.093-0.941-0.274-1.378c-0.181-0.437-0.446-0.834-0.78-1.168s-0.731-0.599-1.168-0.78c-0.437-0.181-0.905-0.274-1.378-0.274-0.955 0-1.87 0.379-2.546 1.054s-1.054 1.591-1.054 2.546 0.379 1.87 1.054 2.546c0.675 0.675 1.591 1.054 2.546 1.054z"></path>
<path d="M22.315 17.733c-0.46 0-0.901-0.183-1.226-0.508s-0.508-0.766-0.508-1.226 0.183-0.901 0.508-1.226c0.325-0.325 0.766-0.508 1.226-0.508s0.901 0.183 1.226 0.508c0.325 0.325 0.508 0.766 0.508 1.226s-0.183 0.901-0.508 1.226c-0.325 0.325-0.766 0.508-1.226 0.508zM22.315 18.8c0.368 0 0.732-0.072 1.072-0.213s0.648-0.347 0.908-0.607c0.26-0.26 0.466-0.569 0.607-0.908s0.213-0.704 0.213-1.072c0-0.368-0.072-0.732-0.213-1.072s-0.347-0.648-0.607-0.908c-0.26-0.26-0.569-0.466-0.908-0.607s-0.704-0.213-1.072-0.213c-0.743 0-1.455 0.295-1.98 0.82s-0.82 1.237-0.82 1.98 0.295 1.455 0.82 1.98c0.525 0.525 1.237 0.82 1.98 0.82z"></path>
</symbol>
<symbol id="icon-btn-open-more" viewBox="0 0 38 32">
<path d="M0.312 3.556v-2.489h2.336v2.489h-0.697v-2.087l0.156 0.156h-1.255l0.153-0.156v2.087h-0.693zM4.403 3.605c-0.199 0-0.383-0.032-0.551-0.096s-0.315-0.154-0.441-0.27c-0.123-0.119-0.219-0.256-0.288-0.412s-0.103-0.328-0.103-0.516c0-0.187 0.034-0.359 0.103-0.516s0.165-0.293 0.288-0.409c0.126-0.119 0.273-0.21 0.441-0.274s0.352-0.096 0.551-0.096c0.201 0 0.385 0.032 0.551 0.096 0.168 0.064 0.314 0.155 0.437 0.274 0.123 0.116 0.219 0.252 0.288 0.409 0.071 0.156 0.107 0.328 0.107 0.516s-0.036 0.36-0.107 0.519c-0.069 0.156-0.165 0.293-0.288 0.409s-0.269 0.206-0.437 0.27c-0.166 0.064-0.35 0.096-0.551 0.096zM4.403 3.022c0.095 0 0.183-0.017 0.263-0.050 0.083-0.033 0.154-0.081 0.213-0.142 0.062-0.064 0.109-0.14 0.142-0.228 0.036-0.088 0.053-0.185 0.053-0.292 0-0.109-0.018-0.206-0.053-0.292-0.033-0.088-0.081-0.162-0.142-0.224-0.059-0.064-0.13-0.113-0.213-0.146-0.081-0.033-0.168-0.050-0.263-0.050s-0.184 0.017-0.267 0.050c-0.081 0.033-0.152 0.082-0.213 0.146-0.059 0.062-0.107 0.136-0.142 0.224-0.033 0.085-0.050 0.183-0.050 0.292 0 0.107 0.017 0.204 0.050 0.292 0.036 0.088 0.083 0.164 0.142 0.228 0.062 0.062 0.133 0.109 0.213 0.142 0.083 0.033 0.172 0.050 0.267 0.050zM7.734 3.556l-0.7-1.184 0.565-0.334 0.928 1.518h-0.793zM6.148 3.556v-2.489h0.7v2.489h-0.7zM6.646 2.603v-0.569h0.903v0.569h-0.903zM7.667 2.386l-0.651-0.071 0.764-1.248h0.74l-0.853 1.319zM8.445 3.556l1.099-2.489h0.693l1.102 2.489h-0.732l-0.86-2.144h0.277l-0.86 2.144h-0.718zM9.046 3.072l0.181-0.519h1.216l0.181 0.519h-1.579zM11.425 3.364l0.21-0.494c0.107 0.054 0.218 0.096 0.334 0.124s0.229 0.045 0.338 0.050c0.109 0.005 0.207-0.002 0.295-0.021 0.090-0.021 0.161-0.053 0.213-0.096s0.078-0.098 0.078-0.167c0-0.076-0.032-0.13-0.096-0.164-0.062-0.036-0.143-0.053-0.245-0.053h-0.636v-0.516h0.58c0.095 0 0.168-0.019 0.22-0.057s0.078-0.089 0.078-0.153c0-0.062-0.023-0.11-0.068-0.146-0.045-0.038-0.105-0.064-0.181-0.078-0.076-0.017-0.161-0.023-0.256-0.018s-0.193 0.023-0.295 0.053c-0.102 0.028-0.2 0.068-0.295 0.117l-0.206-0.526c0.168-0.083 0.345-0.14 0.53-0.171s0.365-0.038 0.54-0.021c0.175 0.017 0.334 0.056 0.476 0.117 0.142 0.059 0.255 0.139 0.338 0.238 0.085 0.1 0.128 0.217 0.128 0.352 0 0.119-0.032 0.224-0.096 0.316s-0.151 0.165-0.26 0.217c-0.109 0.052-0.235 0.078-0.377 0.078l0.018-0.149c0.164 0 0.306 0.028 0.427 0.085 0.123 0.057 0.218 0.135 0.284 0.235 0.069 0.097 0.103 0.21 0.103 0.338 0 0.121-0.032 0.229-0.096 0.324-0.062 0.092-0.148 0.171-0.26 0.235s-0.239 0.111-0.384 0.142c-0.142 0.033-0.295 0.049-0.459 0.046-0.164 0-0.329-0.020-0.498-0.060-0.166-0.040-0.327-0.1-0.484-0.178zM13.737 3.556l1.099-2.489h0.693l1.102 2.489h-0.732l-0.86-2.144h0.277l-0.86 2.144h-0.718zM14.337 3.072l0.181-0.519h1.216l0.181 0.519h-1.579zM17.342 3.556v-2.087l0.156 0.156h-0.921v-0.558h2.219v0.558h-0.917l0.156-0.156v2.087h-0.693zM19.121 3.556v-2.489h0.693v1.461l1.028-1.461h0.661v2.489h-0.693v-1.458l-1.024 1.458h-0.665zM23.072 3.556v-2.489h2.080v0.544h-1.387v0.402h0.644c0.303 0 0.534 0.064 0.693 0.192 0.161 0.128 0.242 0.313 0.242 0.555 0 0.249-0.090 0.444-0.27 0.587-0.18 0.14-0.433 0.21-0.757 0.21h-1.244zM23.766 3.051h0.505c0.116 0 0.205-0.024 0.267-0.071 0.064-0.047 0.096-0.115 0.096-0.203 0-0.175-0.121-0.263-0.363-0.263h-0.505v0.537zM25.708 3.556v-2.489h0.693v2.489h-0.693zM27.030 3.598c-0.048 0-0.098-0.004-0.153-0.011-0.052-0.007-0.108-0.018-0.167-0.032l0.039-0.576c0.033 0.007 0.065 0.011 0.096 0.011 0.097 0 0.171-0.038 0.22-0.114 0.050-0.078 0.084-0.187 0.103-0.327 0.021-0.14 0.034-0.303 0.039-0.491l0.036-0.992h2.005v2.489h-0.693v-2.087l0.153 0.156h-1.006l0.142-0.164-0.018 0.569c-0.007 0.242-0.024 0.46-0.050 0.654-0.026 0.192-0.068 0.357-0.124 0.494-0.057 0.135-0.136 0.239-0.238 0.313-0.1 0.071-0.228 0.107-0.384 0.107zM31.050 1.86c0.303 0 0.538 0.068 0.704 0.203 0.168 0.135 0.252 0.338 0.252 0.608 0 0.292-0.094 0.512-0.281 0.661s-0.443 0.224-0.768 0.224h-1.177v-2.489h0.693v0.793h0.576zM30.911 3.051c0.118 0 0.212-0.032 0.281-0.096 0.071-0.064 0.107-0.154 0.107-0.27 0-0.119-0.036-0.202-0.107-0.249-0.069-0.050-0.162-0.075-0.281-0.075h-0.437v0.69h0.437zM33.857 2.997l-0.153 0.156v-2.087h0.693v2.087l-0.16-0.156h0.964l-0.16 0.156v-2.087h0.693v2.489h-3.374v-2.489h0.693v2.087l-0.153-0.156h0.956zM36.914 2.030h1.156v0.526h-1.156v-0.526zM36.964 3.012h1.301v0.544h-1.998v-2.489h1.952v0.544h-1.255v1.401z"></path>
<path d="M24.222 23.734l-3.889 3.889v-21.358h-2.222v21.358l-3.889-3.889-1.556 1.556 6.556 6.667 6.556-6.667-1.556-1.556z"></path>
</symbol>
<symbol id="icon-next-btn" viewBox="0 0 98 32">
<path d="M77.559 3.797l9.492 9.492h-87.051v5.424h87.051l-9.492 9.492 3.797 3.797 16.271-16-16.271-16-3.797 3.797z"></path>
</symbol>
<symbol id="icon-previous-btn" viewBox="0 0 98 32">
<path d="M20.068 3.797l-9.492 9.492h87.051v5.424h-87.051l9.492 9.492-3.797 3.797-16.271-16 16.271-16 3.797 3.797z"></path>
</symbol>
<symbol id="icon-sort-btn" viewBox="0 0 32 32">
<path d="M16.703 7.797l-1.406 1.406-5.281-5.266-0.016 28.063h-2l0.016-28.109-5.313 5.313-1.406-1.406 7.703-7.703 7.703 7.703zM29.313 22.797l1.422 1.406-7.703 7.703-7.719-7.703 1.422-1.406 5.281 5.281-0.016-28.078h2l0.016 28.094 5.297-5.297z"></path>
</symbol>
<symbol id="icon-next-menu" viewBox="0 0 32 32">
<path d="M7.486 27.341l11.341-11.341-11.341-11.366 3.491-3.491 14.857 14.857-14.857 14.857-3.491-3.516z"></path>
</symbol>
<symbol id="icon-button-open-more" viewBox="0 0 34 32">
<path stroke-linejoin="round" stroke-linecap="round" stroke-miterlimit="4" stroke-width="3.2" d="M26.862 18.489l-9.6 8.711M17.262 27.2l-9.6-8.711M17.262 27.2v-22.4"></path>
</symbol>
<symbol id="icon-button-next" viewBox="0 0 34 32">
<path stroke-linejoin="round" stroke-linecap="round" stroke-miterlimit="4" stroke-width="3.2" d="M19.751 6.4l8.711 9.6M28.462 16l-8.711 9.6M28.462 16h-22.4"></path>
</symbol>
<symbol id="icon-menu-burger" viewBox="0 0 32 32">
<path stroke-linejoin="round" stroke-linecap="round" stroke-miterlimit="4" stroke-width="1.4545" d="M4 8h24M4 16h24M4 24h24"></path>
</symbol>
<symbol id="icon-close" viewBox="0 0 32 32">
<path stroke-linejoin="round" stroke-linecap="round" stroke-miterlimit="4" stroke-width="1.4545" d="M23 23l-14-14M23 9l-14 14"></path>
</symbol>
</defs>
</svg>
