<svg width="63" height="80" viewBox="0 0 63 80" fill="none" xmlns="http://www.w3.org/2000/svg">
<path fill-rule="evenodd" clip-rule="evenodd" d="M7.78857 44.3333C8.93785 44.3333 10.04 43.8768 10.8527 43.0641C11.6654 42.2515 12.1219 41.1493 12.1219 40C12.1219 38.8507 11.6654 37.7485 10.8527 36.9359C10.04 36.1232 8.93785 35.6667 7.78857 35.6667C6.6393 35.6667 5.5371 36.1232 4.72445 36.9359C3.91179 37.7485 3.45524 38.8507 3.45524 40C3.45524 41.1493 3.91179 42.2515 4.72445 43.0641C5.5371 43.8768 6.6393 44.3333 7.78857 44.3333ZM7.78857 47C8.70783 47 9.61808 46.8189 10.4674 46.4672C11.3166 46.1154 12.0883 45.5998 12.7383 44.9497C13.3883 44.2997 13.9039 43.5281 14.2557 42.6788C14.6075 41.8295 14.7886 40.9193 14.7886 40C14.7886 39.0807 14.6075 38.1705 14.2557 37.3212C13.9039 36.4719 13.3883 35.7003 12.7383 35.0503C12.0883 34.4002 11.3166 33.8846 10.4674 33.5328C9.61808 33.1811 8.70783 33 7.78857 33C5.93206 33 4.15158 33.7375 2.83883 35.0503C1.52607 36.363 0.788574 38.1435 0.788574 40C0.788574 41.8565 1.52607 43.637 2.83883 44.9497C4.15158 46.2625 5.93206 47 7.78857 47Z" fill="#F2B800"/>
<path fill-rule="evenodd" clip-rule="evenodd" d="M31.7886 49C32.9705 49 34.1408 48.7672 35.2327 48.3149C36.3247 47.8626 37.3168 47.1997 38.1525 46.364C38.9883 45.5282 39.6512 44.5361 40.1035 43.4442C40.5558 42.3522 40.7886 41.1819 40.7886 40C40.7886 38.8181 40.5558 37.6478 40.1035 36.5559C39.6512 35.4639 38.9883 34.4718 38.1525 33.636C37.3168 32.8003 36.3247 32.1374 35.2327 31.6851C34.1408 31.2328 32.9705 31 31.7886 31C29.4016 31 27.1124 31.9482 25.4246 33.636C23.7368 35.3239 22.7886 37.6131 22.7886 40C22.7886 42.3869 23.7368 44.6761 25.4246 46.364C27.1124 48.0518 29.4016 49 31.7886 49Z" fill="#F2B800"/>
<path fill-rule="evenodd" clip-rule="evenodd" d="M55.7886 44.3333C56.9378 44.3333 58.04 43.8768 58.8527 43.0641C59.6654 42.2515 60.1219 41.1493 60.1219 40C60.1219 38.8507 59.6654 37.7485 58.8527 36.9359C58.04 36.1232 56.9378 35.6667 55.7886 35.6667C54.6393 35.6667 53.5371 36.1232 52.7244 36.9359C51.9118 37.7485 51.4552 38.8507 51.4552 40C51.4552 41.1493 51.9118 42.2515 52.7244 43.0641C53.5371 43.8768 54.6393 44.3333 55.7886 44.3333ZM55.7886 47C56.7078 47 57.6181 46.8189 58.4674 46.4672C59.3166 46.1154 60.0883 45.5998 60.7383 44.9497C61.3883 44.2997 61.9039 43.5281 62.2557 42.6788C62.6075 41.8295 62.7886 40.9193 62.7886 40C62.7886 39.0807 62.6075 38.1705 62.2557 37.3212C61.9039 36.4719 61.3883 35.7003 60.7383 35.0503C60.0883 34.4002 59.3166 33.8846 58.4674 33.5328C57.6181 33.1811 56.7078 33 55.7886 33C53.9321 33 52.1516 33.7375 50.8388 35.0503C49.5261 36.363 48.7886 38.1435 48.7886 40C48.7886 41.8565 49.5261 43.637 50.8388 44.9497C52.1516 46.2625 53.9321 47 55.7886 47Z" fill="#F2B800"/>
</svg>
